<svg viewBox="0 0 56 56" fill="none" xmlns="http://www.w3.org/2000/svg">
  <defs>
    <linearGradient id="g1" x1="0" y1="0" x2="56" y2="56" gradientUnits="userSpaceOnUse">
      <stop offset="0%" stop-color="#3b82f6"/>
      <stop offset="100%" stop-color="#818cf8"/>
    </linearGradient>
    <linearGradient id="g2" x1="10" y1="10" x2="46" y2="46" gradientUnits="userSpaceOnUse">
      <stop offset="0%" stop-color="#60a5fa"/>
      <stop offset="100%" stop-color="#a78bfa"/>
    </linearGradient>
  </defs>
  <circle cx="28" cy="28" r="27" fill="#111827"/>
  <circle cx="28" cy="28" r="25" stroke="url(#g1)" stroke-width="2" fill="none" opacity="0.3"/>
  <path d="M 38 14 A 16 16 0 0 1 42 28" stroke="url(#g2)" stroke-width="3" stroke-linecap="round" fill="none"/>
  <polygon points="43,27 42,31 39,28" fill="#60a5fa"/>
  <path d="M 18 42 A 16 16 0 0 1 14 28" stroke="url(#g2)" stroke-width="3" stroke-linecap="round" fill="none"/>
  <polygon points="13,29 14,25 17,28" fill="#a78bfa"/>
  <circle cx="28" cy="28" r="6" fill="#1e293b" stroke="url(#g1)" stroke-width="2"/>
  <circle cx="28" cy="28" r="2.5" fill="#60a5fa"/>
  <line x1="28" y1="22" x2="28" y2="13" stroke="#3b82f6" stroke-width="2" stroke-linecap="round" opacity="0.7"/>
  <line x1="28" y1="34" x2="28" y2="43" stroke="#818cf8" stroke-width="2" stroke-linecap="round" opacity="0.7"/>
  <circle cx="28" cy="12" r="2.5" fill="#3b82f6"/>
  <circle cx="28" cy="44" r="2.5" fill="#818cf8"/>
</svg>
